<svg id="Layer_1" data-name="Layer 1" xmlns="http://www.w3.org/2000/svg" viewBox="0 0 160 160.04"><defs><style>.cls-1{fill:#e72a32;}.cls-2{fill:#282800;}.cls-3{fill:#ffccb4;}.cls-4{fill:#ff5f86;}</style></defs><title>background2</title><rect class="cls-1" width="160" height="160"/><ellipse class="cls-2" cx="39.84" cy="61.65" rx="3.86" ry="1.05" transform="matrix(0.63, -0.78, 0.78, 0.63, -33.15, 53.86)"/><ellipse class="cls-2" cx="49.1" cy="90.66" rx="3.86" ry="1.05" transform="translate(-53.3 102.7) rotate(-68.27)"/><ellipse class="cls-2" cx="50.84" cy="113.84" rx="1.05" ry="3.86" transform="translate(-8.29 4.08) rotate(-4.25)"/><ellipse class="cls-2" cx="66.63" cy="36.82" rx="3.86" ry="1.05" transform="translate(7.76 85.08) rotate(-68.27)"/><ellipse class="cls-2" cx="43.11" cy="105.71" rx="1.05" ry="3.86" transform="translate(-7.71 3.48) rotate(-4.25)"/><ellipse class="cls-2" cx="47.07" cy="53.32" rx="3.86" ry="1.05" transform="translate(-12.59 92.05) rotate(-81.54)"/><path class="cls-3" d="M80.38,160c-4.24-5.1.61-2.48-2.51-6.72-3.7-3.12-3.93,2.24-2.31-7,2.55-5.24,5.09-1.37,6.25-3.37,2.89-2.74,5.44,3.37,8.44-1.25,3.59-4.49,13.29,1.69,17.78-7,4.26-6.57,6.62-4.84,7.77-6.81s3.69-12.09,3.83-15.86c.71-3.08,14.71-5,16.18-8.52,2.68,5.13-12.92,56.56-12.92,56.56Z"/><path class="cls-4" d="M92.72,160s-3.17.94-12.72-7c-2.36-2.63,3.14-1.68,4.1-4.07,3.83-2.15,1-1.78,3.83-2.15,4.16-.95,7.95,1.14,9.84-2.08,5.11-4.16,6.62-2.65,10-3.6,4.54-2.46,5.49-2.27,6.25-6.81,0,0,3.89-5.46,2.79-11,0-5.54,2.44-5,4.43-6.21,2.55-2.66,9.41-1.47,13.73-11.15,3.57-11,1.64-2.83,3.28-3.72s6.85,2.53,7.74-1.34-5.51-3.26,3-10.19S156.12,93,160,85v75Z"/><path class="cls-1" d="M154.68,160c.47-2,1.48-6.8,3.07-14.26,1.15-5.89-.38-1.28-.59-.8a11.8,11.8,0,0,0-.74,2.63c-1,4.83-2,9.43-2.59,12.43Z"/><path class="cls-1" d="M148.59,160h.84c-.07-3-.2-7-.45-13.51-.32-6-.67-1.15-.75-.63a11.29,11.29,0,0,0-.1,2.73C148.31,152.86,148.49,157,148.59,160Z"/><path class="cls-1" d="M136.8,149.51c2.32,4,4.57,7.49,6,10.49h1c-1-2-3.37-6.06-7.21-12.73-3.08-5.15-1.1-.67-.94-.17A10.58,10.58,0,0,0,136.8,149.51Z"/><path class="cls-1" d="M129.13,155.57a9.33,9.33,0,0,0,2.1,1.73c1.35.89,2.68,1.7,3.94,2.7h1.6c-1.83-1-4.05-2.82-6.73-4.61C125,152.14,128.76,155.2,129.13,155.57Z"/><path class="cls-1" d="M117.42,157.07a9,9,0,0,0,2.4,1.25c1.38.54,2.74.68,4,1.68h2.4c-2.13-1-4.79-2-8-3.29C112.65,154.58,117,156.78,117.42,157.07Z"/></svg>