<svg id="Layer_1" data-name="Layer 1" xmlns="http://www.w3.org/2000/svg" viewBox="0 0 160.21 160"><defs><style>.cls-1{fill:#00135f;}.cls-2{fill:#001fc9;}.cls-3{fill:#d0ceff;}.cls-4{fill:#321923;}</style></defs><title>background3</title><rect class="cls-1" x="0.21" width="160" height="160"/><path class="cls-2" d="M160,99.71C147,82.94,117.71,77.18,90.5,87.1c-30.38,11.07-46.67,37.46-36.44,59A27.26,27.26,0,0,0,59.42,154h88.3A51.75,51.75,0,0,0,160,140.83Z"/><path class="cls-3" d="M160,123.8c0-1.94-1.08-3.86-2-5.74-10.23-21.51-43.1-30-73.48-18.91s-46.69,37.48-36.46,59c.3.63.65,1.26,1,1.87h99.37A47.76,47.76,0,0,0,160,139.49Z"/><path class="cls-4" d="M95,54C89.19,73.48,71.49,72,61.12,92.8c-12.48,25-3.32,60.21,8.06,62.87,3.25.76,7.8-.88,14.3-8.33C89,145,82.9,155,85.31,160h23.22c-.31-2-.94-5.58-2-9.53-.85-6.53,5.87-4.79,1.66-10.41-6.85-9.8-15.12-15.35-20.63-14.53a12.35,12.35,0,0,0-6.33,2.82,10.39,10.39,0,0,0-2.81,4.93c-.27,1-.68,1.88-1.36,2-3.93.94-18-21.89-12.8-38,3-9.41,10.79-10.89,22.49-19.74C116.65,55,133.11,14,123.72,3.23A10.19,10.19,0,0,0,116.42,0H0L.1,41.17C27,5.43,65.33-2.35,82.93,11.24,94,19.77,99.5,38.72,95,54Z"/></svg>