<svg id="Layer_1" data-name="Layer 1" xmlns="http://www.w3.org/2000/svg" viewBox="0 0 160.07 160.73"><defs><style>.cls-1{fill:#e7ff47;}.cls-2,.cls-3{fill:#282800;}.cls-2{opacity:0.66;}.cls-4{fill:#fbffaa;}</style></defs><title>background</title><rect class="cls-1" x="0.07" width="160" height="160"/><path class="cls-2" d="M-.07,67s58.2,93,72.89,93H96S6.66,19.48,0,36C0,49.31-.07,67-.07,67Z" transform="translate(0.07)"/><ellipse class="cls-3" cx="108.46" cy="109.7" rx="0.77" ry="1.67"/><ellipse class="cls-3" cx="107.69" cy="131.41" rx="4.71" ry="4.82"/><ellipse class="cls-3" cx="98.28" cy="71.04" rx="2.25" ry="2.3"/><ellipse class="cls-3" cx="118.98" cy="28.51" rx="6.01" ry="6.16"/><ellipse class="cls-3" cx="98.28" cy="95.03" rx="1.54" ry="1.58"/><path class="cls-3" d="M83.39,160s-12.87-10.65-17.08-17.34c-6.31-9.16-13.49-19.06-18.93-17.45-4.58,2-7.3,1.86-10.27-3.46C32.9,114.58,23.37,102.94,22.76,100c-1.11-4-5.69-2.72-5.44.87,1.61,5.57,36.5,53.83,46.28,59.89C75.84,160.73,83.39,160,83.39,160Z" transform="translate(0.07)"/><ellipse class="cls-4" cx="91.92" cy="114.19" rx="6.16" ry="17.24" transform="translate(-53.71 130.32) rotate(-57.48)"/><ellipse class="cls-4" cx="130.44" cy="55.54" rx="9.41" ry="5.5" transform="translate(-4.27 99.53) rotate(-41.14)"/><ellipse class="cls-4" cx="87.96" cy="32.6" rx="4.44" ry="6.52" transform="translate(20.61 97.83) rotate(-64.39)"/><path class="cls-3" d="M40.56,110.91c-.27-1.62-6.64-6.05-7.29-10.17C33.05,99.15,8.65,69.59,0,59.15v5.59C3.25,69,9.87,77.5,23.28,94,48,125.89,42.45,113.61,40.56,110.91Z" transform="translate(0.07)"/></svg>